<svg width="90" height="32" viewBox="0 0 90 32" fill="none" xmlns="http://www.w3.org/2000/svg">
<path fill-rule="evenodd" clip-rule="evenodd" d="M27.5895 4.6633C27.5895 8.11808 22.3977 10.9187 15.9933 10.9187C9.58895 10.9187 4.39717 8.11808 4.39717 4.6633C4.39717 3.12933 5.42071 1.72433 7.11947 0.636176C3.5007 2.15395 1.1582 4.57687 1.1582 7.30674C1.1582 11.9035 7.8002 15.6299 15.9935 15.6299C24.1868 15.6299 30.8288 11.9035 30.8288 7.30674C30.8288 4.57661 28.4859 2.15349 24.8665 0.635742C26.5657 1.72395 27.5895 3.12913 27.5895 4.6633ZM15.9952 31.3448H14.0979C12.6543 31.3448 11.4079 30.3393 11.111 28.9353L10.6066 26.5443L9.01889 19.0996C9.01889 19.0996 7.24349 18.9523 4.37221 18.1427C1.50094 17.3331 0.949365 14.8928 1.35397 13.6495C1.63434 12.788 1.93384 12.116 1.93384 12.116C5.7419 15.6245 9.30274 16.3481 13.4613 16.674L14.1802 20.0728L15.4603 26.1539C15.5079 26.3819 15.7184 26.5443 15.9952 26.5443V31.3448ZM15.9956 31.3448H17.8929C19.3365 31.3448 20.5829 30.3393 20.8798 28.9353L21.3842 26.5443L22.9719 19.0996C22.9719 19.0996 24.7473 18.9523 27.6186 18.1427C30.4899 17.3331 31.0414 14.8928 30.6368 13.6495C30.3565 12.788 30.057 12.116 30.057 12.116C26.2489 15.6245 22.6881 16.3481 18.5295 16.674L17.8106 20.0728L16.5305 26.1539C16.4829 26.3819 16.2724 26.5443 15.9956 26.5443V31.3448Z" fill="white"/>
<path d="M39.9806 12.22V2.14H45.9516V3.603H41.4436V6.445H45.1116V7.915H41.4436V12.22H39.9806Z" fill="white"/>
<path d="M49.642 12.423C49.1194 12.423 48.6807 12.339 48.326 12.171C47.9714 12.003 47.682 11.7837 47.458 11.513C47.2387 11.2377 47.0707 10.939 46.954 10.617C46.8374 10.295 46.758 9.98 46.716 9.672C46.674 9.364 46.653 9.09333 46.653 8.86V4.66H48.137V8.377C48.137 8.671 48.1604 8.97433 48.207 9.287C48.2584 9.595 48.3517 9.882 48.487 10.148C48.627 10.414 48.8207 10.6287 49.068 10.792C49.32 10.9553 49.6467 11.037 50.048 11.037C50.3094 11.037 50.5567 10.995 50.79 10.911C51.0234 10.8223 51.2264 10.6823 51.399 10.491C51.5764 10.2997 51.714 10.0477 51.812 9.735C51.9147 9.42233 51.966 9.042 51.966 8.594L52.876 8.937C52.876 9.623 52.7477 10.2297 52.491 10.757C52.2344 11.2797 51.8657 11.688 51.385 11.982C50.9044 12.276 50.3234 12.423 49.642 12.423ZM52.141 12.22V10.036H51.966V4.66H53.443V12.22H52.141Z" fill="white"/>
<path d="M60.2923 12.22V8.503C60.2923 8.209 60.2667 7.908 60.2153 7.6C60.1687 7.28733 60.0753 6.998 59.9353 6.732C59.8 6.466 59.6063 6.25133 59.3543 6.088C59.107 5.92467 58.7827 5.843 58.3813 5.843C58.12 5.843 57.8727 5.88733 57.6393 5.976C57.406 6.06 57.2007 6.19767 57.0233 6.389C56.8507 6.58033 56.713 6.83233 56.6103 7.145C56.5123 7.45767 56.4633 7.838 56.4633 8.286L55.5533 7.943C55.5533 7.257 55.6817 6.65267 55.9383 6.13C56.195 5.60267 56.5637 5.192 57.0443 4.898C57.525 4.604 58.106 4.457 58.7873 4.457C59.31 4.457 59.7487 4.541 60.1033 4.709C60.458 4.877 60.745 5.09867 60.9643 5.374C61.1883 5.64467 61.3587 5.941 61.4753 6.263C61.592 6.585 61.6713 6.9 61.7133 7.208C61.7553 7.516 61.7763 7.78667 61.7763 8.02V12.22H60.2923ZM54.9793 12.22V4.66H56.2883V6.844H56.4633V12.22H54.9793Z" fill="white"/>
<path d="M66.0869 12.43C65.3822 12.43 64.7732 12.255 64.2599 11.905C63.7512 11.555 63.3569 11.079 63.0769 10.477C62.8016 9.87033 62.6639 9.189 62.6639 8.433C62.6639 7.67233 62.8039 6.99333 63.0839 6.396C63.3639 5.794 63.7606 5.32033 64.2739 4.975C64.7919 4.625 65.4056 4.45 66.1149 4.45C66.8289 4.45 67.4286 4.625 67.9139 4.975C68.4039 5.32033 68.7726 5.794 69.0199 6.396C69.2719 6.998 69.3979 7.677 69.3979 8.433C69.3979 9.189 69.2719 9.868 69.0199 10.47C68.7679 11.072 68.3969 11.5503 67.9069 11.905C67.4169 12.255 66.8102 12.43 66.0869 12.43ZM66.2899 11.107C66.7706 11.107 67.1626 10.9927 67.4659 10.764C67.7692 10.5353 67.9909 10.2203 68.1309 9.819C68.2709 9.41767 68.3409 8.95567 68.3409 8.433C68.3409 7.91033 68.2686 7.44833 68.1239 7.047C67.9839 6.64567 67.7646 6.333 67.4659 6.109C67.1719 5.885 66.7962 5.773 66.3389 5.773C65.8536 5.773 65.4546 5.892 65.1419 6.13C64.8292 6.368 64.5959 6.68767 64.4419 7.089C64.2926 7.49033 64.2179 7.93833 64.2179 8.433C64.2179 8.93233 64.2926 9.385 64.4419 9.791C64.5959 10.1923 64.8246 10.512 65.1279 10.75C65.4359 10.988 65.8232 11.107 66.2899 11.107ZM68.3409 12.22V6.781H68.1729V2.14H69.6429V12.22H68.3409Z" fill="white"/>
<path d="M71.3215 3.421V2H72.7845V3.421H71.3215ZM71.3215 12.22V4.66H72.7845V12.22H71.3215Z" fill="white"/>
<path d="M79.7726 12.22V8.503C79.7726 8.209 79.7469 7.908 79.6956 7.6C79.6489 7.28733 79.5556 6.998 79.4156 6.732C79.2802 6.466 79.0866 6.25133 78.8346 6.088C78.5872 5.92467 78.2629 5.843 77.8616 5.843C77.6002 5.843 77.3529 5.88733 77.1196 5.976C76.8862 6.06 76.6809 6.19767 76.5036 6.389C76.3309 6.58033 76.1932 6.83233 76.0906 7.145C75.9926 7.45767 75.9436 7.838 75.9436 8.286L75.0336 7.943C75.0336 7.257 75.1619 6.65267 75.4186 6.13C75.6752 5.60267 76.0439 5.192 76.5246 4.898C77.0052 4.604 77.5862 4.457 78.2676 4.457C78.7902 4.457 79.2289 4.541 79.5836 4.709C79.9382 4.877 80.2252 5.09867 80.4446 5.374C80.6686 5.64467 80.8389 5.941 80.9556 6.263C81.0722 6.585 81.1516 6.9 81.1936 7.208C81.2356 7.516 81.2566 7.78667 81.2566 8.02V12.22H79.7726ZM74.4596 12.22V4.66H75.7686V6.844H75.9436V12.22H74.4596Z" fill="white"/>
<path d="M85.7748 15.79C85.3688 15.79 84.9745 15.727 84.5918 15.601C84.2138 15.475 83.8685 15.2883 83.5558 15.041C83.2432 14.7983 82.9842 14.4973 82.7788 14.138L84.1298 13.452C84.2932 13.774 84.5265 14.0097 84.8298 14.159C85.1332 14.3083 85.4528 14.383 85.7888 14.383C86.2042 14.383 86.5588 14.3083 86.8528 14.159C87.1468 14.0143 87.3685 13.795 87.5178 13.501C87.6718 13.207 87.7465 12.843 87.7418 12.409V10.295H87.9168V4.66H89.2118V12.423C89.2118 12.6237 89.2048 12.815 89.1908 12.997C89.1768 13.179 89.1512 13.361 89.1138 13.543C89.0065 14.0517 88.8012 14.4717 88.4978 14.803C88.1992 15.1343 87.8165 15.3817 87.3498 15.545C86.8878 15.7083 86.3628 15.79 85.7748 15.79ZM85.6628 12.43C84.9582 12.43 84.3492 12.255 83.8358 11.905C83.3272 11.555 82.9328 11.079 82.6528 10.477C82.3775 9.87033 82.2398 9.189 82.2398 8.433C82.2398 7.67233 82.3798 6.99333 82.6598 6.396C82.9398 5.794 83.3365 5.32033 83.8498 4.975C84.3678 4.625 84.9815 4.45 85.6908 4.45C86.4048 4.45 87.0045 4.625 87.4898 4.975C87.9798 5.32033 88.3485 5.794 88.5958 6.396C88.8478 6.998 88.9738 7.677 88.9738 8.433C88.9738 9.189 88.8478 9.868 88.5958 10.47C88.3438 11.072 87.9728 11.5503 87.4828 11.905C86.9928 12.255 86.3862 12.43 85.6628 12.43ZM85.8658 11.107C86.3465 11.107 86.7385 10.9927 87.0418 10.764C87.3452 10.5353 87.5668 10.2203 87.7068 9.819C87.8468 9.41767 87.9168 8.95567 87.9168 8.433C87.9168 7.91033 87.8445 7.44833 87.6998 7.047C87.5598 6.64567 87.3405 6.333 87.0418 6.109C86.7478 5.885 86.3722 5.773 85.9148 5.773C85.4295 5.773 85.0305 5.892 84.7178 6.13C84.4052 6.368 84.1718 6.68767 84.0178 7.089C83.8685 7.49033 83.7938 7.93833 83.7938 8.433C83.7938 8.93233 83.8685 9.385 84.0178 9.791C84.1718 10.1923 84.4005 10.512 84.7038 10.75C85.0118 10.988 85.3992 11.107 85.8658 11.107Z" fill="white"/>
<path d="M42.4936 29.22V20.519H39.1406V19.14H47.3096V20.519H43.9566V29.22H42.4936Z" fill="white"/>
<path d="M47.3126 29.22V21.66H48.6146V23.494L48.4326 23.256C48.5259 23.0133 48.6472 22.7917 48.7966 22.591C48.9459 22.3857 49.1186 22.2177 49.3146 22.087C49.5059 21.947 49.7182 21.8397 49.9516 21.765C50.1896 21.6857 50.4322 21.639 50.6796 21.625C50.9269 21.6063 51.1649 21.618 51.3936 21.66V23.032C51.1462 22.9667 50.8709 22.948 50.5676 22.976C50.2689 23.004 49.9936 23.0997 49.7416 23.263C49.5036 23.417 49.3146 23.6037 49.1746 23.823C49.0392 24.0423 48.9412 24.2873 48.8806 24.558C48.8199 24.824 48.7896 25.1063 48.7896 25.405V29.22H47.3126Z" fill="white"/>
<path d="M54.2229 29.43C53.6629 29.43 53.1939 29.3273 52.8159 29.122C52.4379 28.912 52.1509 28.6367 51.9549 28.296C51.7636 27.9507 51.6679 27.5727 51.6679 27.162C51.6679 26.7793 51.7356 26.4433 51.8709 26.154C52.0062 25.8647 52.2069 25.6197 52.4729 25.419C52.7389 25.2137 53.0656 25.048 53.4529 24.922C53.7889 24.824 54.1692 24.7377 54.5939 24.663C55.0186 24.5883 55.4642 24.5183 55.9309 24.453C56.4022 24.3877 56.8689 24.3223 57.3309 24.257L56.7989 24.551C56.8082 23.9583 56.6822 23.5197 56.4209 23.235C56.1642 22.9457 55.7209 22.801 55.0909 22.801C54.6942 22.801 54.3302 22.8943 53.9989 23.081C53.6676 23.263 53.4366 23.5663 53.3059 23.991L51.9409 23.571C52.1276 22.9223 52.4822 22.4067 53.0049 22.024C53.5322 21.6413 54.2322 21.45 55.1049 21.45C55.7816 21.45 56.3696 21.5667 56.8689 21.8C57.3729 22.0287 57.7416 22.3927 57.9749 22.892C58.0962 23.1393 58.1709 23.4007 58.1989 23.676C58.2269 23.9513 58.2409 24.2477 58.2409 24.565V29.22H56.9459V27.491L57.1979 27.715C56.8852 28.2937 56.4862 28.7253 56.0009 29.01C55.5202 29.29 54.9276 29.43 54.2229 29.43ZM54.4819 28.233C54.8972 28.233 55.2542 28.1607 55.5529 28.016C55.8516 27.8667 56.0919 27.6777 56.2739 27.449C56.4559 27.2203 56.5749 26.9823 56.6309 26.735C56.7102 26.511 56.7546 26.259 56.7639 25.979C56.7779 25.699 56.7849 25.475 56.7849 25.307L57.2609 25.482C56.7989 25.552 56.3789 25.615 56.0009 25.671C55.6229 25.727 55.2799 25.783 54.9719 25.839C54.6686 25.8903 54.3979 25.9533 54.1599 26.028C53.9592 26.098 53.7796 26.182 53.6209 26.28C53.4669 26.378 53.3432 26.497 53.2499 26.637C53.1612 26.777 53.1169 26.9473 53.1169 27.148C53.1169 27.344 53.1659 27.526 53.2639 27.694C53.3619 27.8573 53.5112 27.988 53.7119 28.086C53.9126 28.184 54.1692 28.233 54.4819 28.233Z" fill="white"/>
<path d="M62.6416 29.43C61.9369 29.43 61.3279 29.255 60.8146 28.905C60.3059 28.555 59.9116 28.079 59.6316 27.477C59.3563 26.8703 59.2186 26.189 59.2186 25.433C59.2186 24.6723 59.3586 23.9933 59.6386 23.396C59.9186 22.794 60.3153 22.3203 60.8286 21.975C61.3466 21.625 61.9603 21.45 62.6696 21.45C63.3836 21.45 63.9833 21.625 64.4686 21.975C64.9586 22.3203 65.3273 22.794 65.5746 23.396C65.8266 23.998 65.9526 24.677 65.9526 25.433C65.9526 26.189 65.8266 26.868 65.5746 27.47C65.3226 28.072 64.9516 28.5503 64.4616 28.905C63.9716 29.255 63.3649 29.43 62.6416 29.43ZM62.8446 28.107C63.3253 28.107 63.7173 27.9927 64.0206 27.764C64.3239 27.5353 64.5456 27.2203 64.6856 26.819C64.8256 26.4177 64.8956 25.9557 64.8956 25.433C64.8956 24.9103 64.8233 24.4483 64.6786 24.047C64.5386 23.6457 64.3193 23.333 64.0206 23.109C63.7266 22.885 63.3509 22.773 62.8936 22.773C62.4083 22.773 62.0093 22.892 61.6966 23.13C61.3839 23.368 61.1506 23.6877 60.9966 24.089C60.8473 24.4903 60.7726 24.9383 60.7726 25.433C60.7726 25.9323 60.8473 26.385 60.9966 26.791C61.1506 27.1923 61.3793 27.512 61.6826 27.75C61.9906 27.988 62.3779 28.107 62.8446 28.107ZM64.8956 29.22V23.781H64.7276V19.14H66.1976V29.22H64.8956Z" fill="white"/>
<path d="M71.0892 29.43C70.3378 29.43 69.6775 29.2667 69.1082 28.94C68.5435 28.6087 68.1025 28.149 67.7852 27.561C67.4725 26.9683 67.3162 26.2823 67.3162 25.503C67.3162 24.677 67.4702 23.9607 67.7782 23.354C68.0908 22.7473 68.5248 22.2783 69.0802 21.947C69.6355 21.6157 70.2818 21.45 71.0192 21.45C71.7892 21.45 72.4448 21.6297 72.9862 21.989C73.5275 22.3437 73.9312 22.85 74.1972 23.508C74.4678 24.166 74.5752 24.9477 74.5192 25.853H73.0562V25.321C73.0468 24.4437 72.8788 23.795 72.5522 23.375C72.2302 22.955 71.7378 22.745 71.0752 22.745C70.3425 22.745 69.7918 22.976 69.4232 23.438C69.0545 23.9 68.8702 24.5673 68.8702 25.44C68.8702 26.2707 69.0545 26.9147 69.4232 27.372C69.7918 27.8247 70.3238 28.051 71.0192 28.051C71.4765 28.051 71.8708 27.9483 72.2022 27.743C72.5382 27.533 72.7995 27.2343 72.9862 26.847L74.4212 27.302C74.1272 27.9787 73.6815 28.5037 73.0842 28.877C72.4868 29.2457 71.8218 29.43 71.0892 29.43ZM68.3942 25.853V24.712H73.7912V25.853H68.3942Z" fill="white"/>
<path d="M75.6697 29.22V21.66H76.9717V23.494L76.7897 23.256C76.883 23.0133 77.0044 22.7917 77.1537 22.591C77.303 22.3857 77.4757 22.2177 77.6717 22.087C77.863 21.947 78.0754 21.8397 78.3087 21.765C78.5467 21.6857 78.7894 21.639 79.0367 21.625C79.284 21.6063 79.522 21.618 79.7507 21.66V23.032C79.5034 22.9667 79.228 22.948 78.9247 22.976C78.626 23.004 78.3507 23.0997 78.0987 23.263C77.8607 23.417 77.6717 23.6037 77.5317 23.823C77.3964 24.0423 77.2984 24.2873 77.2377 24.558C77.177 24.824 77.1467 25.1063 77.1467 25.405V29.22H75.6697Z" fill="white"/>
<path d="M83.2813 29.423C82.362 29.423 81.613 29.22 81.0343 28.814C80.4556 28.408 80.101 27.8363 79.9703 27.099L81.4683 26.868C81.5616 27.26 81.7763 27.5703 82.1123 27.799C82.453 28.023 82.8753 28.135 83.3793 28.135C83.8366 28.135 84.1936 28.0417 84.4503 27.855C84.7116 27.6683 84.8423 27.4117 84.8423 27.085C84.8423 26.8937 84.7956 26.7397 84.7023 26.623C84.6136 26.5017 84.4246 26.3873 84.1353 26.28C83.846 26.1727 83.405 26.0397 82.8123 25.881C82.1636 25.713 81.648 25.5333 81.2653 25.342C80.8873 25.146 80.6166 24.9197 80.4533 24.663C80.2946 24.4017 80.2153 24.0867 80.2153 23.718C80.2153 23.2607 80.3366 22.8617 80.5793 22.521C80.822 22.1803 81.1626 21.9167 81.6013 21.73C82.0446 21.5433 82.5626 21.45 83.1553 21.45C83.734 21.45 84.2496 21.541 84.7023 21.723C85.155 21.905 85.5213 22.164 85.8013 22.5C86.0813 22.8313 86.2493 23.221 86.3053 23.669L84.8073 23.942C84.756 23.578 84.5856 23.291 84.2963 23.081C84.007 22.871 83.6313 22.7567 83.1693 22.738C82.726 22.7193 82.3666 22.794 82.0913 22.962C81.816 23.1253 81.6783 23.3517 81.6783 23.641C81.6783 23.809 81.7296 23.9513 81.8323 24.068C81.9396 24.1847 82.145 24.2967 82.4483 24.404C82.7516 24.5113 83.1996 24.6397 83.7923 24.789C84.427 24.9523 84.931 25.1343 85.3043 25.335C85.6776 25.531 85.9436 25.7667 86.1023 26.042C86.2656 26.3127 86.3473 26.6417 86.3473 27.029C86.3473 27.7757 86.0743 28.3613 85.5283 28.786C84.987 29.2107 84.238 29.423 83.2813 29.423Z" fill="white"/>
</svg>
