<svg width="200" height="32" viewBox="0 0 200 32" fill="none" xmlns="http://www.w3.org/2000/svg">
<path d="M40.561 25.0002V8.94419H50.072V11.2745H42.8914V15.8014H48.734V18.1429H42.8914V25.0002H40.561Z" fill="white"/>
<path d="M55.9503 25.3235C55.1177 25.3235 54.419 25.1897 53.8541 24.9221C53.2891 24.6545 52.8283 24.3052 52.4715 23.874C52.1221 23.4355 51.8545 22.9597 51.6687 22.4468C51.4828 21.9339 51.3565 21.4322 51.2896 20.9416C51.2227 20.451 51.1892 20.0199 51.1892 19.6482V12.9582H53.553V18.8788C53.553 19.3471 53.5902 19.8303 53.6645 20.3283C53.7463 20.8189 53.8949 21.2761 54.1105 21.6998C54.3335 22.1235 54.642 22.4654 55.036 22.7256C55.4374 22.9858 55.9577 23.1158 56.597 23.1158C57.0132 23.1158 57.4072 23.0489 57.7789 22.9151C58.1505 22.7739 58.4739 22.5509 58.7489 22.2461C59.0314 21.9414 59.2507 21.54 59.4068 21.0419C59.5703 20.5439 59.6521 19.9381 59.6521 19.2245L61.1016 19.7708C61.1016 20.8635 60.8971 21.8299 60.4883 22.6698C60.0795 23.5024 59.4922 24.1528 58.7266 24.6211C57.961 25.0894 57.0355 25.3235 55.9503 25.3235ZM59.9308 25.0002V21.5214H59.6521V12.9582H62.0047V25.0002H59.9308Z" fill="white"/>
<path d="M72.9146 25.0002V19.0795C72.9146 18.6112 72.8738 18.1318 72.792 17.6412C72.7177 17.1432 72.569 16.6823 72.346 16.2586C72.1304 15.8349 71.8219 15.493 71.4205 15.2328C71.0266 14.9726 70.51 14.8425 69.8707 14.8425C69.4544 14.8425 69.0605 14.9132 68.6888 15.0544C68.3171 15.1882 67.9901 15.4075 67.7076 15.7122C67.4326 16.017 67.2133 16.4184 67.0497 16.9164C66.8936 17.4145 66.8156 18.0203 66.8156 18.7339L65.3661 18.1875C65.3661 17.0948 65.5705 16.1322 65.9793 15.2997C66.3882 14.4597 66.9754 13.8056 67.741 13.3373C68.5067 12.869 69.4321 12.6348 70.5174 12.6348C71.3499 12.6348 72.0487 12.7686 72.6136 13.0362C73.1785 13.3038 73.6357 13.6569 73.985 14.0955C74.3418 14.5266 74.6132 14.9986 74.799 15.5115C74.9848 16.0244 75.1112 16.5262 75.1781 17.0168C75.245 17.5074 75.2784 17.9385 75.2784 18.3102V25.0002H72.9146ZM64.4518 25.0002V12.9582H66.5368V16.437H66.8156V25.0002H64.4518Z" fill="white"/>
<path d="M82.1446 25.3347C81.0221 25.3347 80.0521 25.0559 79.2344 24.4984C78.4242 23.9409 77.7961 23.1827 77.3501 22.2238C76.9115 21.2575 76.6922 20.1722 76.6922 18.968C76.6922 17.7564 76.9152 16.6749 77.3612 15.7234C77.8072 14.7645 78.4391 14.01 79.2567 13.4599C80.0818 12.9024 81.0593 12.6237 82.1892 12.6237C83.3265 12.6237 84.2817 12.9024 85.0547 13.4599C85.8352 14.01 86.4225 14.7645 86.8164 15.7234C87.2178 16.6823 87.4185 17.7638 87.4185 18.968C87.4185 20.1722 87.2178 21.2538 86.8164 22.2127C86.415 23.1716 85.8241 23.9335 85.0436 24.4984C84.2631 25.0559 83.2967 25.3347 82.1446 25.3347ZM82.4679 23.2273C83.2336 23.2273 83.858 23.0452 84.3411 22.681C84.8243 22.3168 85.1774 21.815 85.4004 21.1757C85.6234 20.5365 85.7349 19.8006 85.7349 18.968C85.7349 18.1355 85.6197 17.3996 85.3892 16.7603C85.1662 16.1211 84.8169 15.623 84.3411 15.2662C83.8728 14.9094 83.2744 14.731 82.546 14.731C81.7729 14.731 81.1374 14.9206 80.6393 15.2997C80.1413 15.6788 79.7696 16.188 79.5243 16.8272C79.2865 17.4665 79.1675 18.1801 79.1675 18.968C79.1675 19.7634 79.2865 20.4844 79.5243 21.1311C79.7696 21.7704 80.1339 22.2796 80.617 22.6587C81.1076 23.0378 81.7246 23.2273 82.4679 23.2273ZM85.7349 25.0002V16.3366H85.4673V8.94419H87.8088V25.0002H85.7349Z" fill="white"/>
<path d="M90.4825 10.9846V8.72119H92.8129V10.9846H90.4825ZM90.4825 25.0002V12.9582H92.8129V25.0002H90.4825Z" fill="white"/>
<path d="M103.944 25.0002V19.0795C103.944 18.6112 103.903 18.1318 103.821 17.6412C103.747 17.1432 103.598 16.6823 103.375 16.2586C103.16 15.8349 102.851 15.493 102.45 15.2328C102.056 14.9726 101.539 14.8425 100.9 14.8425C100.484 14.8425 100.09 14.9132 99.718 15.0544C99.3464 15.1882 99.0193 15.4075 98.7368 15.7122C98.4618 16.017 98.2425 16.4184 98.079 16.9164C97.9229 17.4145 97.8448 18.0203 97.8448 18.7339L96.3953 18.1875C96.3953 17.0948 96.5997 16.1322 97.0086 15.2997C97.4174 14.4597 98.0046 13.8056 98.7703 13.3373C99.5359 12.869 100.461 12.6348 101.547 12.6348C102.379 12.6348 103.078 12.7686 103.643 13.0362C104.208 13.3038 104.665 13.6569 105.014 14.0955C105.371 14.5266 105.642 14.9986 105.828 15.5115C106.014 16.0244 106.14 16.5262 106.207 17.0168C106.274 17.5074 106.308 17.9385 106.308 18.3102V25.0002H103.944ZM95.481 25.0002V12.9582H97.5661V16.437H97.8448V25.0002H95.481Z" fill="white"/>
<path d="M113.505 30.6867C112.858 30.6867 112.23 30.5863 111.62 30.3856C111.018 30.1849 110.468 29.8876 109.97 29.4936C109.472 29.1071 109.06 28.6277 108.732 28.0553L110.884 26.9626C111.145 27.4755 111.516 27.8509 111.999 28.0887C112.483 28.3266 112.992 28.4455 113.527 28.4455C114.189 28.4455 114.753 28.3266 115.222 28.0887C115.69 27.8583 116.043 27.5089 116.281 27.0406C116.526 26.5723 116.645 25.9925 116.638 25.3012V21.9339H116.917V12.9582H118.979V25.3235C118.979 25.6432 118.968 25.9479 118.946 26.2378C118.924 26.5277 118.883 26.8176 118.823 27.1075C118.652 27.9178 118.325 28.5868 117.842 29.1145C117.366 29.6423 116.757 30.0363 116.013 30.2964C115.278 30.5566 114.441 30.6867 113.505 30.6867ZM113.326 25.3347C112.204 25.3347 111.234 25.0559 110.416 24.4984C109.606 23.9409 108.978 23.1827 108.532 22.2238C108.093 21.2575 107.874 20.1722 107.874 18.968C107.874 17.7564 108.097 16.6749 108.543 15.7234C108.989 14.7645 109.621 14.01 110.438 13.4599C111.263 12.9024 112.241 12.6237 113.371 12.6237C114.508 12.6237 115.463 12.9024 116.236 13.4599C117.017 14.01 117.604 14.7645 117.998 15.7234C118.399 16.6823 118.6 17.7638 118.6 18.968C118.6 20.1722 118.399 21.2538 117.998 22.2127C117.597 23.1716 117.006 23.9335 116.225 24.4984C115.445 25.0559 114.478 25.3347 113.326 25.3347ZM113.65 23.2273C114.415 23.2273 115.04 23.0452 115.523 22.681C116.006 22.3168 116.359 21.815 116.582 21.1757C116.805 20.5365 116.917 19.8006 116.917 18.968C116.917 18.1355 116.801 17.3996 116.571 16.7603C116.348 16.1211 115.999 15.623 115.523 15.2662C115.055 14.9094 114.456 14.731 113.728 14.731C112.955 14.731 112.319 14.9206 111.821 15.2997C111.323 15.6788 110.951 16.188 110.706 16.8272C110.468 17.4665 110.349 18.1801 110.349 18.968C110.349 19.7634 110.468 20.4844 110.706 21.1311C110.951 21.7704 111.316 22.2796 111.799 22.6587C112.289 23.0378 112.906 23.2273 113.65 23.2273Z" fill="white"/>
<path d="M129.239 25.0002V11.1407H123.899V8.94419H136.911V11.1407H131.57V25.0002H129.239Z" fill="white"/>
<path d="M136.915 25.0002V12.9582H138.989V15.8795L138.699 15.5004C138.848 15.1139 139.041 14.7608 139.279 14.4411C139.517 14.1141 139.792 13.8465 140.104 13.6383C140.409 13.4153 140.747 13.2444 141.119 13.1254C141.498 12.9991 141.884 12.9247 142.278 12.9024C142.672 12.8727 143.052 12.8913 143.416 12.9582V15.1436C143.022 15.0395 142.583 15.0098 142.1 15.0544C141.624 15.099 141.186 15.2514 140.784 15.5115C140.405 15.7568 140.104 16.0542 139.881 16.4035C139.666 16.7529 139.51 17.1432 139.413 17.5743C139.316 17.998 139.268 18.4477 139.268 18.9234V25.0002H136.915Z" fill="white"/>
<path d="M147.922 25.3347C147.03 25.3347 146.283 25.1712 145.681 24.8441C145.079 24.5096 144.622 24.071 144.31 23.5284C144.005 22.9783 143.853 22.3762 143.853 21.7221C143.853 21.1126 143.96 20.5774 144.176 20.1165C144.392 19.6556 144.711 19.2654 145.135 18.9457C145.559 18.6187 146.079 18.3548 146.696 18.1541C147.231 17.998 147.837 17.8605 148.513 17.7415C149.19 17.6226 149.9 17.5111 150.643 17.407C151.394 17.303 152.137 17.1989 152.873 17.0948L152.026 17.5631C152.04 16.6191 151.84 15.9204 151.424 15.4669C151.015 15.0061 150.309 14.7756 149.305 14.7756C148.673 14.7756 148.093 14.9243 147.566 15.2216C147.038 15.5115 146.67 15.9947 146.462 16.6711L144.288 16.0021C144.585 14.9689 145.15 14.1475 145.982 13.538C146.822 12.9285 147.937 12.6237 149.327 12.6237C150.405 12.6237 151.342 12.8095 152.137 13.1812C152.94 13.5454 153.527 14.1252 153.899 14.9206C154.092 15.3146 154.211 15.7308 154.256 16.1694C154.3 16.608 154.323 17.08 154.323 17.5854V25.0002H152.26V22.2461L152.661 22.6029C152.163 23.5247 151.528 24.2123 150.755 24.6657C149.989 25.1117 149.045 25.3347 147.922 25.3347ZM148.335 23.428C148.997 23.428 149.565 23.3128 150.041 23.0824C150.517 22.8445 150.899 22.5435 151.189 22.1792C151.479 21.815 151.669 21.4359 151.758 21.0419C151.884 20.6851 151.955 20.2837 151.97 19.8377C151.992 19.3917 152.003 19.0349 152.003 18.7673L152.762 19.0461C152.026 19.1576 151.357 19.2579 150.755 19.3471C150.152 19.4363 149.606 19.5255 149.115 19.6147C148.632 19.6965 148.201 19.7969 147.822 19.9158C147.502 20.0273 147.216 20.1611 146.964 20.3172C146.718 20.4733 146.521 20.6628 146.373 20.8858C146.231 21.1088 146.161 21.3802 146.161 21.6998C146.161 22.012 146.239 22.3019 146.395 22.5695C146.551 22.8297 146.789 23.0378 147.108 23.1939C147.428 23.35 147.837 23.428 148.335 23.428Z" fill="white"/>
<path d="M161.332 25.3347C160.21 25.3347 159.24 25.0559 158.422 24.4984C157.612 23.9409 156.984 23.1827 156.538 22.2238C156.099 21.2575 155.88 20.1722 155.88 18.968C155.88 17.7564 156.103 16.6749 156.549 15.7234C156.995 14.7645 157.627 14.01 158.444 13.4599C159.269 12.9024 160.247 12.6237 161.377 12.6237C162.514 12.6237 163.469 12.9024 164.242 13.4599C165.023 14.01 165.61 14.7645 166.004 15.7234C166.405 16.6823 166.606 17.7638 166.606 18.968C166.606 20.1722 166.405 21.2538 166.004 22.2127C165.603 23.1716 165.012 23.9335 164.231 24.4984C163.451 25.0559 162.484 25.3347 161.332 25.3347ZM161.656 23.2273C162.421 23.2273 163.046 23.0452 163.529 22.681C164.012 22.3168 164.365 21.815 164.588 21.1757C164.811 20.5365 164.923 19.8006 164.923 18.968C164.923 18.1355 164.807 17.3996 164.577 16.7603C164.354 16.1211 164.005 15.623 163.529 15.2662C163.06 14.9094 162.462 14.731 161.734 14.731C160.961 14.731 160.325 14.9206 159.827 15.2997C159.329 15.6788 158.957 16.188 158.712 16.8272C158.474 17.4665 158.355 18.1801 158.355 18.968C158.355 19.7634 158.474 20.4844 158.712 21.1311C158.957 21.7704 159.322 22.2796 159.805 22.6587C160.295 23.0378 160.912 23.2273 161.656 23.2273ZM164.923 25.0002V16.3366H164.655V8.94419H166.996V25.0002H164.923Z" fill="white"/>
<path d="M174.788 25.3347C173.591 25.3347 172.539 25.0745 171.633 24.5542C170.733 24.0264 170.031 23.2942 169.525 22.3576C169.027 21.4136 168.778 20.3209 168.778 19.0795C168.778 17.7638 169.023 16.6228 169.514 15.6565C170.012 14.6902 170.703 13.9431 171.588 13.4153C172.473 12.8876 173.502 12.6237 174.676 12.6237C175.903 12.6237 176.947 12.9099 177.81 13.4822C178.672 14.0472 179.315 14.8537 179.739 15.9018C180.17 16.9499 180.341 18.195 180.252 19.637H177.921V18.7896C177.906 17.3922 177.639 16.3589 177.118 15.6899C176.605 15.0209 175.821 14.6864 174.766 14.6864C173.599 14.6864 172.722 15.0544 172.134 15.7903C171.547 16.5262 171.253 17.5892 171.253 18.9792C171.253 20.3023 171.547 21.3281 172.134 22.0566C172.722 22.7776 173.569 23.1381 174.676 23.1381C175.405 23.1381 176.033 22.9746 176.561 22.6475C177.096 22.313 177.512 21.8373 177.81 21.2203L180.095 21.9451C179.627 23.0229 178.917 23.8592 177.966 24.4538C177.014 25.0411 175.955 25.3347 174.788 25.3347ZM170.495 19.637V17.8196H179.092V19.637H170.495Z" fill="white"/>
<path d="M182.084 25.0002V12.9582H184.158V15.8795L183.868 15.5004C184.017 15.1139 184.21 14.7608 184.448 14.4411C184.686 14.1141 184.961 13.8465 185.273 13.6383C185.578 13.4153 185.916 13.2444 186.288 13.1254C186.667 12.9991 187.053 12.9247 187.447 12.9024C187.841 12.8727 188.22 12.8913 188.585 12.9582V15.1436C188.191 15.0395 187.752 15.0098 187.269 15.0544C186.793 15.099 186.355 15.2514 185.953 15.5115C185.574 15.7568 185.273 16.0542 185.05 16.4035C184.834 16.7529 184.678 17.1432 184.582 17.5743C184.485 17.998 184.437 18.4477 184.437 18.9234V25.0002H182.084Z" fill="white"/>
<path d="M194.208 25.3235C192.744 25.3235 191.551 25.0002 190.629 24.3535C189.707 23.7068 189.143 22.7962 188.934 21.6217L191.32 21.2538C191.469 21.8782 191.811 22.3725 192.346 22.7367C192.889 23.0935 193.562 23.2719 194.364 23.2719C195.093 23.2719 195.662 23.1233 196.07 22.8259C196.487 22.5286 196.695 22.1198 196.695 21.5994C196.695 21.2947 196.62 21.0494 196.472 20.8635C196.331 20.6703 196.029 20.4882 195.569 20.3172C195.108 20.1462 194.405 19.9344 193.461 19.6816C192.428 19.414 191.607 19.1279 190.997 18.8231C190.395 18.5109 189.964 18.1504 189.704 17.7415C189.451 17.3253 189.325 16.8235 189.325 16.2363C189.325 15.5078 189.518 14.8723 189.904 14.3296C190.291 13.787 190.834 13.367 191.532 13.0697C192.238 12.7724 193.064 12.6237 194.008 12.6237C194.929 12.6237 195.751 12.7686 196.472 13.0585C197.193 13.3484 197.776 13.761 198.222 14.2962C198.668 14.824 198.936 15.4446 199.025 16.1582L196.639 16.5931C196.557 16.0133 196.286 15.5561 195.825 15.2216C195.364 14.8871 194.766 14.705 194.03 14.6753C193.324 14.6456 192.751 14.7645 192.313 15.0321C191.874 15.2923 191.655 15.6528 191.655 16.1136C191.655 16.3812 191.737 16.608 191.9 16.7938C192.071 16.9796 192.398 17.158 192.881 17.329C193.365 17.5 194.078 17.7044 195.022 17.9422C196.033 18.2024 196.836 18.4923 197.431 18.8119C198.025 19.1241 198.449 19.4995 198.702 19.9381C198.962 20.3692 199.092 20.8933 199.092 21.5102C199.092 22.6996 198.657 23.6325 197.787 24.3089C196.925 24.9853 195.732 25.3235 194.208 25.3235Z" fill="white"/>
<path fill-rule="evenodd" clip-rule="evenodd" d="M27.5894 4.6633C27.5894 8.11808 22.3976 10.9187 15.9932 10.9187C9.58884 10.9187 4.39706 8.11808 4.39706 4.6633C4.39706 3.12933 5.4206 1.72433 7.11936 0.636176C3.50058 2.15395 1.15809 4.57687 1.15809 7.30674C1.15809 11.9035 7.80008 15.6299 15.9934 15.6299C24.1867 15.6299 30.8287 11.9035 30.8287 7.30674C30.8287 4.57661 28.4858 2.15349 24.8664 0.635742C26.5656 1.72395 27.5894 3.12913 27.5894 4.6633ZM15.9951 31.3448H14.0978C12.6542 31.3448 11.4077 30.3393 11.1109 28.9353L10.6065 26.5443L9.01878 19.0996C9.01878 19.0996 7.24337 18.9523 4.3721 18.1427C1.50083 17.3331 0.94925 14.8928 1.35386 13.6495C1.63422 12.788 1.93373 12.116 1.93373 12.116C5.74178 15.6245 9.30262 16.3481 13.4612 16.674L14.1801 20.0728L15.4602 26.1539C15.5078 26.3819 15.7183 26.5443 15.9951 26.5443V31.3448ZM15.9955 31.3448H17.8928C19.3364 31.3448 20.5828 30.3393 20.8797 28.9353L21.3841 26.5443L22.9718 19.0996C22.9718 19.0996 24.7472 18.9523 27.6185 18.1427C30.4898 17.3331 31.0413 14.8928 30.6367 13.6495C30.3564 12.788 30.0569 12.116 30.0569 12.116C26.2488 15.6245 22.688 16.3481 18.5293 16.674L17.8105 20.0728L16.5304 26.1539C16.4828 26.3819 16.2723 26.5443 15.9955 26.5443V31.3448Z" fill="white"/>
</svg>
